# xmcd CD database file
#
# Track frame offsets:
#	150
#	14048
#	17504
#	43290
#	47093
#	70089
#	73644
#	91149
#	95788
#	141219
#	144932
#	170248
#	172862
#	192122
#	194170
#	215081
#	217647
#	253281
#	255626
#
# Disc length: 3550 seconds
#
# Revision: 0
# Processed by: cddbd v1.5.2PL0 Copyright (c) Steve Scherf et al.
# Submitted via: cdripper 1,0,15,908
#
DISCID=220ddc13
DTITLE=Henry Brun and The Latin Players - Spiritual Awakenings
DYEAR=2004
DGENRE=Jazz
TTITLE0=Two Hearts
TTITLE1=Bomba (interlude)
TTITLE2=El Tren De Bernardo
TTITLE3=Plena (interlude)
TTITLE4=Stirring My Emotions
TTITLE5=Yambu (interlude)
TTITLE6=Coquetona
TTITLE7=Guaguanco (interlude)
TTITLE8=Gente Del Rio
TTITLE9=Mozambique (interlude)
TTITLE10=Con Mi Ritmo
TTITLE11=Abakua (interlude)
TTITLE12=The Great Chase
TTITLE13=Pilon (interlude)
TTITLE14=Rumba De San Anton
TTITLE15=Ritmo Pa' Ca' (interlude)
TTITLE16=Caravan
TTITLE17=Elegua (interlude)
TTITLE18=Got a Match?
EXTD=YEAR: 2004
EXTT0=
EXTT1=
EXTT2=
EXTT3=
EXTT4=
EXTT5=
EXTT6=
EXTT7=
EXTT8=
EXTT9=
EXTT10=
EXTT11=
EXTT12=
EXTT13=
EXTT14=
EXTT15=
EXTT16=
EXTT17=
EXTT18=
PLAYORDER=
